<?xml version="1.0"?>
<!--Icons from directory ""-->
<svg xmlns="http://www.w3.org/2000/svg" width="49" height="147" viewBox="0 0 49 147"><svg xmlns:xlink="http://www.w3.org/1999/xlink" id="bunny" xml:space="preserve" height="49" viewBox="0 0 49 49" width="49" version="1.1" y="0" x="0px" enable-background="new 0 0 49 49"><rect width="49" height="49" fill="#B1D8A1"/><path d="m11.165 37.416s-4.333 0.584-3.167 3.084 4.25 1.084 6.167 0.166c1.917-0.916 4.25-4 4.25-4s3.5 1.584 7.667 1.168c4.166-0.418 8.333-1.084 8.333-1.084s-4.667 5.083-2.333 5.666c2.333 0.584 6.33-0.03 7.75-1.916 6.333-8.416 6.416-14.666 6.416-14.666l-0.916-1.667-13.084 4.083-16.083 6.416-5 2.75z" fill="#969E87"/><g fill="#fff"><path d="m7.915 16.167s-0.417-6.917 1.146-9.792 2.313-3.813 2.688-3.75 1.5 3.25 0.875 5.313-2.584 8.479-4.709 8.229z"/><path d="m3.686 30.375c-0.563-0.75-1.25-6.375-0.375-8.25s2.563-3.789 3.938-4.292l3.063-1.271s2.188-5.75 5.188-8.125 8.625-5.875 9.688-4.5 0.625 6.688-1.375 9.188-6 5.75-6 5.75l-1.5 0.688s-0.646 6.271-1.896 8.021-4.604 3.541-7.042 3.791-3.689-1-3.689-1z"/><path d="m13.332 31.333s-1.709 2.167-2.896 3.229-2.438 3.625-1.25 4.375 4.063-0.563 5.063-1.313 2.938-2.75 2.938-2.75 3.75 0.375 7.438 0.688 11.313-0.813 11.313-0.813-1.625 1.75-2.313 2.5-2.5 2.438-1.875 3.313 3.063 1.125 4.125 0.563 4.25-5.25 5.063-5.688 5.625-7.709 5.313-10.021c-0.313-2.312-4.875-10.104-11.563-10.166s-12.229 1.958-14.354 4.083-2.979 3.438-3.167 4.25-1.333 5.25-1.333 5.25l-2.502 2.5z"/><path d="m42.477 13.438c0.559-0.468 3.625-0.563 4.25 1.313s0.375 3.938-0.625 4.313-3.625-0.313-3.688-0.625-1.875-3.376 0.063-5.001z"/></g><path d="m16.873 10.688s1.188-1.063 3.063-2.188 2.313-0.25 2.313-0.25-0.625 3-2 4.188-4.688 2.938-4.938 2.75 0.187-3.563 1.562-4.5z" fill="#D3D3D3"/><path d="m10.436 9.438s0.563-2.5 1-2.938 0.875-0.563 0.875-0.563-0.536 3.009-0.813 3.896c-0.417 1.333-1.917 4.083-1.917 4.083l0.855-4.478z" fill="#D3D3D3"/></svg><svg xmlns:xlink="http://www.w3.org/1999/xlink" id="bush" xml:space="preserve" height="49" viewBox="0 0 49 49" width="49" version="1.1" y="49" x="0px" enable-background="new 0 0 49 49"><rect width="49" height="49" fill="#B1D8A1"/><path d="m5.166 37v-2.5s7.333-3 13.667-2.834c6.333 0.168 9.833 1 15-1 5.166-2 13.166 0.668 13.166 0.668s0.5 2.961 0.5 5.5c0 2.791-1.994 6.463-5.875 7.541-6.75 1.875-16.125-0.375-16.125-0.375s-6.498-0.039-11.333-0.333c-5.5-0.333-9-6.667-9-6.667z" fill="#324C26"/><path d="m28.999 4.667c4.666 0 8.291 2.84 10.25 5.583 2.5 3.5 2 7.5 2 7.5s4.25 3.417 4.917 6.25 3.999 9.5-4.001 15.667-14.666-1.333-14.666-1.333-2.167-0.834-4.167 1c-2 1.833-9.667 4.166-15.167 1.5-5.5-2.667-7.559-11.447-5.333-16 1.086-2.221 2.988-3.127 4.542-4.458 0.875-0.75 6.625-3.125 6.625-3.125s1-6.417 5.167-9.417c3.629-2.613 7.667-3.167 9.833-3.167z" fill="#466837"/><g fill="#58894C"><path d="m23.192 7.882c1.887-1.341 7.327-1.019 8.265-0.41s-5.304 2.421-7.167 4.056c-1.862 1.635-4.773 3.655-4.773 3.655s0.211-4.841 3.675-7.301z"/><path d="m7.997 22.166c2.612-1.975 6.147-2.007 8.252-1.166 1.25 0.5 1.875 2.375 1.875 2.375s-3.345-0.596-7.127 1.904c-3.782 2.501-5.561 6.498-5.561 6.498s-2.697-5.634 2.561-9.611z"/><path d="m34.544 23.572s4.258-2.935 6.347-2.102 2.438 2.51 2.438 2.51-3.122-0.042-6.76 2.419c-3.639 2.46-6.236 4.935-6.236 4.935s0.691-5.879 4.211-7.762z"/></g><g fill="#324C26"><path d="m22.833 18.5s5 0.667 8.5-2.167 5.332-3.333 5.332-3.333 2 0.167 2 1.5-4 6.834-6.666 7.167-6.167 0.167-6.667-0.167c-0.499-0.333-2.832-0.5-2.499-3z"/><path d="m6.665 35.635s1.65-0.289 3.693 0.23c2.043 0.521 4.075 0.873 5.368 0.277s5.019-2.203 7.205-2.029 0.409 3.313-1.501 4.621c-1.91 1.31-5.365 2.063-7.716 1.9-2.351-0.162-7.317-1.806-7.049-4.999z"/><path d="m40.13 34.441c2.287-1.302 3.563-6.6 4.275-6.773 0.713-0.175 2.137 3.299 1.068 5.904s-4.63 6.254-7.659 6.428-7.838-1.911-7.481-3.648c0.356-1.736 3.207-0.868 4.81-0.521 1.602 0.347 2.85-0.173 4.987-1.39z"/></g></svg><svg xmlns:xlink="http://www.w3.org/1999/xlink" id="grass" xml:space="preserve" height="49" viewBox="0 0 49 49" width="49" version="1.1" y="98" x="0px" enable-background="new 0 0 49 49"><rect width="49" height="49" fill="#B1D8A1"/></svg></svg>
