<?xml version="1.0" encoding="utf-8"?>
<!-- Generator: Adobe Illustrator 16.0.0, SVG Export Plug-In . SVG Version: 6.00 Build 0)  -->
<!DOCTYPE svg PUBLIC "-//W3C//DTD SVG 1.1//EN" "http://www.w3.org/Graphics/SVG/1.1/DTD/svg11.dtd">
<svg version="1.1" id="Layer_1" xmlns="http://www.w3.org/2000/svg" xmlns:xlink="http://www.w3.org/1999/xlink" x="0px" y="0px"
	 width="20px" height="20px" viewBox="0 0 20 20" enable-background="new 0 0 20 20" xml:space="preserve">
<rect fill="#B1D8A1" width="20" height="20"/>
<path fill="#969E87" d="M4.557,15.272c0,0-1.769,0.238-1.292,1.259c0.476,1.02,1.734,0.442,2.517,0.068
	c0.782-0.374,1.734-1.633,1.734-1.633s1.429,0.646,3.129,0.477C12.346,15.272,14.047,15,14.047,15s-1.905,2.075-0.952,2.313
	c0.952,0.238,2.583-0.012,3.163-0.782c2.585-3.435,2.619-5.986,2.619-5.986l-0.374-0.68l-5.34,1.667l-6.564,2.619L4.557,15.272z"/>
<path fill="#FFFFFF" d="M3.23,6.599c0,0-0.17-2.823,0.468-3.997c0.638-1.173,0.944-1.556,1.097-1.531
	C4.949,1.097,5.408,2.398,5.153,3.24C4.897,4.082,4.098,6.701,3.23,6.599z"/>
<path fill="#FFFFFF" d="M1.504,12.398c-0.229-0.306-0.51-2.602-0.153-3.367c0.357-0.766,1.046-1.547,1.607-1.752l1.25-0.519
	c0,0,0.893-2.347,2.118-3.316c1.224-0.97,3.52-2.398,3.954-1.837s0.255,2.73-0.561,3.75C8.903,6.377,7.271,7.704,7.271,7.704
	L6.658,7.985c0,0-0.264,2.56-0.774,3.274s-1.879,1.445-2.874,1.547S1.504,12.398,1.504,12.398z"/>
<path fill="#FFFFFF" d="M5.441,12.789c0,0-0.697,0.884-1.182,1.318c-0.485,0.434-0.995,1.48-0.51,1.786s1.658-0.23,2.066-0.536
	s1.199-1.123,1.199-1.123s1.531,0.153,3.036,0.281c1.505,0.128,4.618-0.332,4.618-0.332s-0.664,0.714-0.944,1.021
	c-0.281,0.306-1.021,0.996-0.766,1.353c0.255,0.357,1.25,0.459,1.684,0.229c0.434-0.229,1.734-2.143,2.066-2.321
	c0.332-0.179,2.296-3.146,2.169-4.09c-0.128-0.944-1.99-4.124-4.72-4.149C11.429,6.199,9.167,7.023,8.3,7.891
	C7.432,8.758,7.083,9.294,7.007,9.626c-0.077,0.331-0.544,2.143-0.544,2.143L5.441,12.789z"/>
<path fill="#FFFFFF" d="M17.337,5.485c0.229-0.191,1.479-0.23,1.735,0.536c0.255,0.766,0.153,1.607-0.255,1.76
	c-0.408,0.153-1.479-0.128-1.505-0.255C17.286,7.399,16.546,6.148,17.337,5.485z"/>
<path fill="#D3D3D3" d="M6.887,4.362c0,0,0.485-0.434,1.25-0.893C8.902,3.01,9.081,3.367,9.081,3.367S8.826,4.592,8.265,5.077
	C7.704,5.562,6.352,6.276,6.25,6.199S6.326,4.745,6.887,4.362z"/>
<path fill="#D3D3D3" d="M4.26,3.852c0,0,0.229-1.02,0.408-1.199c0.178-0.179,0.357-0.23,0.357-0.23s-0.219,1.228-0.332,1.59
	C4.523,4.558,3.911,5.68,3.911,5.68L4.26,3.852z"/>
</svg>
